<?xml version="1.0" standalone="no"?>
<!DOCTYPE svg PUBLIC "-//W3C//DTD SVG 20010904//EN"
 "http://www.w3.org/TR/2001/REC-SVG-20010904/DTD/svg10.dtd">
<svg version="1.0" xmlns="http://www.w3.org/2000/svg"
 width="688.000000pt" height="688.000000pt" viewBox="0 0 688.000000 688.000000"
 preserveAspectRatio="xMidYMid meet">
<metadata>
Created by potrace 1.11, written by Peter Selinger 2001-2013
</metadata>
<g transform="translate(0.000000,688.000000) scale(0.100000,-0.100000)"
fill="#000000" stroke="none">
<path d="M2645 6696 c-52 -24 -80 -67 -159 -251 -43 -99 -90 -205 -103 -235
-14 -30 -66 -147 -115 -260 -50 -113 -95 -211 -100 -217 -6 -7 -8 -13 -4 -13
4 0 -3 -18 -14 -41 -12 -22 -45 -95 -74 -162 -122 -280 -199 -454 -216 -492
-10 -22 -41 -92 -68 -155 -28 -63 -58 -128 -66 -145 -9 -16 -16 -33 -16 -37 0
-4 -13 -35 -29 -70 -25 -55 -157 -352 -444 -1003 -41 -93 -86 -195 -100 -225
-14 -30 -47 -107 -75 -170 -27 -63 -61 -140 -74 -170 -14 -30 -49 -110 -79
-178 l-54 -123 -65 68 c-67 69 -101 122 -134 203 -26 65 -28 75 -32 186 -3 79
1 120 17 185 12 46 25 89 29 94 4 6 15 30 24 55 68 178 315 478 566 690 119
101 119 101 178 143 107 79 47 45 -105 -59 -789 -536 -1220 -1070 -1235 -1529
-13 -397 276 -691 857 -871 44 -14 87 -27 95 -29 30 -8 205 -47 225 -50 55
-10 205 -34 245 -39 25 -3 68 -9 95 -12 253 -33 980 -38 1225 -9 19 2 71 7
115 10 113 9 154 13 200 18 22 3 69 8 105 12 36 3 72 8 80 10 8 2 40 7 70 10
58 7 98 12 140 20 14 2 45 7 70 10 63 9 114 17 250 41 52 9 104 18 115 20 11
1 45 8 75 13 30 6 64 13 75 15 86 17 288 59 320 68 22 6 51 12 65 15 14 2 131
31 260 64 129 33 242 62 250 64 153 39 633 189 864 270 87 30 161 54 163 51 8
-8 233 -591 233 -604 0 -37 27 6 81 128 33 74 66 149 74 165 7 17 38 86 68
155 30 69 115 262 190 430 184 417 181 410 171 420 -5 5 -106 51 -225 104
-120 52 -237 103 -260 114 -62 28 -626 277 -731 322 -49 21 -88 37 -88 34 0
-2 59 -156 131 -341 71 -184 127 -339 122 -344 -16 -16 -609 -224 -698 -245
-5 -2 -62 -18 -125 -37 -63 -19 -116 -34 -118 -32 -1 1 11 31 27 66 16 35 80
179 141 319 61 140 120 273 130 295 10 22 70 157 133 300 216 492 369 840 392
890 162 362 235 536 235 565 0 52 -35 113 -78 137 -33 19 -135 65 -397 180
-44 20 -105 47 -135 60 -30 14 -70 31 -87 39 -18 8 -48 20 -65 28 -44 19 -511
225 -778 343 -118 53 -384 170 -590 261 -697 306 -868 382 -935 412 -22 10
-57 25 -78 35 -52 23 -116 27 -152 11z m286 -641 c107 -47 203 -90 214 -95 35
-16 135 -60 310 -137 180 -80 419 -185 890 -393 160 -71 405 -179 545 -240
140 -62 282 -124 315 -139 33 -15 101 -45 150 -66 50 -21 93 -41 97 -44 6 -5
-72 -193 -145 -351 -9 -19 -118 -267 -242 -550 -124 -283 -235 -534 -246 -557
-10 -24 -84 -190 -163 -370 -79 -181 -160 -362 -178 -403 l-35 -75 -54 -12
c-30 -6 -97 -21 -149 -33 -94 -20 -208 -44 -265 -55 -99 -19 -307 -55 -345
-60 -56 -8 -98 -14 -130 -20 -14 -2 -47 -7 -75 -10 -27 -3 -59 -7 -70 -9 -11
-2 -51 -7 -90 -10 -38 -4 -83 -9 -100 -11 -27 -5 -97 -11 -215 -20 -390 -30
-950 -20 -1165 21 -11 2 -40 7 -65 10 -25 3 -52 7 -60 9 -8 2 -31 7 -50 10
-85 15 -243 57 -340 90 -58 20 -106 38 -108 39 -1 2 11 32 27 67 32 69 337
760 613 1389 93 212 177 404 188 426 10 23 51 115 91 205 39 90 82 187 94 214
13 28 58 129 100 225 85 195 100 227 125 285 10 22 61 137 113 255 176 401
220 500 222 500 1 0 90 -38 196 -85z"/>
<path d="M2481 4603 l-62 -96 310 -464 c305 -457 309 -464 295 -491 -37 -71
-1 -177 74 -220 103 -58 245 11 254 122 2 23 76 62 818 432 l815 406 33 77
c53 120 56 109 -50 178 l-93 61 -40 -23 c-22 -13 -70 -43 -107 -66 -37 -24
-93 -60 -125 -80 -89 -56 -621 -396 -678 -434 -27 -18 -85 -55 -128 -81 -43
-27 -137 -87 -210 -134 -72 -47 -166 -107 -208 -133 l-77 -48 -33 20 c-19 11
-49 22 -67 25 -19 2 -35 6 -36 8 -2 2 -55 120 -119 263 -64 143 -160 358 -214
478 l-98 218 -89 40 c-48 21 -92 39 -96 39 -4 0 -35 -43 -69 -97z"/>
<path d="M430 1784 c-23 -59 -4 -148 39 -182 22 -17 107 -57 356 -167 116 -51
381 -168 590 -260 482 -212 463 -204 510 -225 73 -33 134 -60 338 -149 111
-49 227 -100 257 -114 30 -14 163 -72 295 -130 432 -189 610 -269 615 -276 3
-3 11 -7 18 -9 7 -1 24 -14 38 -29 13 -14 24 -21 24 -15 0 6 -8 16 -17 21 -10
6 -13 11 -6 11 6 0 19 -7 27 -16 9 -8 16 -13 16 -9 0 3 13 -1 29 -10 97 -49
202 -9 247 95 18 43 479 1089 505 1145 38 87 119 269 119 270 0 1 -75 -15
-167 -35 -93 -20 -188 -41 -212 -46 l-43 -9 -134 -304 c-74 -167 -135 -306
-137 -308 -4 -3 -40 12 -162 67 -22 10 -89 39 -150 65 -60 26 -137 60 -170 75
-281 127 -533 234 -550 233 -11 0 -96 -4 -190 -8 -265 -12 -737 -6 -824 10 -9
1 -52 6 -96 10 -86 7 -133 13 -174 20 -14 2 -46 7 -71 10 -75 10 -332 64 -385
81 -27 8 -54 17 -60 18 -126 32 -354 127 -427 178 -34 23 -37 23 -48 -8z"/>
<path d="M2084 319 c-3 -6 -1 -16 5 -22 9 -9 10 -7 5 7 -6 15 -4 17 6 11 9 -5
11 -4 6 3 -9 15 -13 15 -22 1z"/>
<path d="M1310 310 c-9 -6 -10 -10 -3 -10 6 0 15 5 18 10 8 12 4 12 -15 0z"/>
<path d="M1390 310 c-9 -6 -10 -10 -3 -10 6 0 15 5 18 10 8 12 4 12 -15 0z"/>
<path d="M1615 311 c-3 -5 0 -13 6 -17 7 -4 9 -3 5 4 -3 5 0 13 6 15 9 4 10 6
1 6 -6 1 -14 -3 -18 -8z"/>
<path d="M1675 310 c-3 -6 1 -7 9 -4 18 7 21 14 7 14 -6 0 -13 -4 -16 -10z"/>
<path d="M1735 311 c-3 -5 0 -13 6 -17 8 -5 9 -3 4 6 -6 10 -4 12 9 7 10 -4
15 -3 11 3 -8 13 -22 13 -30 1z"/>
<path d="M1790 310 c-9 -6 -10 -10 -3 -10 6 0 15 5 18 10 8 12 4 12 -15 0z"/>
<path d="M1910 310 c-13 -8 -12 -10 3 -10 9 0 17 5 17 10 0 12 -1 12 -20 0z"/>
<path d="M2020 316 c0 -2 7 -7 16 -10 8 -3 12 -2 9 4 -6 10 -25 14 -25 6z"/>
<path d="M2201 313 c-1 -17 16 -25 25 -12 4 7 3 9 -4 5 -5 -3 -13 0 -15 6 -4
9 -6 10 -6 1z"/>
<path d="M2350 310 c-9 -6 -10 -10 -3 -10 6 0 15 5 18 10 8 12 4 12 -15 0z"/>
<path d="M2593 305 c0 -8 4 -12 9 -9 5 3 6 10 3 15 -9 13 -12 11 -12 -6z"/>
<path d="M775 300 c6 -10 4 -12 -11 -6 -15 6 -17 5 -6 -5 9 -9 15 -10 23 -2 8
8 7 13 -2 18 -8 6 -10 4 -4 -5z"/>
<path d="M949 294 c21 -15 24 -15 39 2 16 17 16 17 -1 4 -14 -10 -21 -10 -29
-2 -7 7 -17 12 -22 12 -6 0 0 -7 13 -16z"/>
<path d="M1006 285 c-9 -14 -13 -25 -8 -25 5 0 14 11 20 25 6 14 10 25 8 25
-2 0 -11 -11 -20 -25z"/>
<path d="M1066 293 c23 -17 29 -16 45 5 11 14 11 15 -1 5 -15 -14 -34 -18 -26
-5 2 4 -4 8 -15 8 -19 0 -19 -1 -3 -13z"/>
<path d="M1140 300 c8 -5 22 -9 30 -9 10 0 8 3 -5 9 -27 12 -43 12 -25 0z"/>
<path d="M1230 301 c0 -10 29 -36 34 -30 1 2 -6 12 -16 22 -10 9 -18 13 -18 8z"/>
<path d="M1255 300 c3 -5 8 -10 11 -10 2 0 4 5 4 10 0 6 -5 10 -11 10 -5 0 -7
-4 -4 -10z"/>
<path d="M1413 297 c-3 -6 -1 -7 5 -3 7 4 12 2 12 -3 0 -14 27 -14 35 -1 4 6
-1 7 -11 3 -10 -4 -15 -2 -11 4 3 5 -1 10 -9 10 -8 0 -18 -5 -21 -10z"/>
<path d="M1514 296 c1 -8 5 -18 8 -22 4 -3 5 1 4 10 -1 8 -5 18 -8 22 -4 3 -5
-1 -4 -10z"/>
<path d="M1575 300 c6 -9 2 -10 -16 -5 -13 4 -22 6 -19 3 34 -27 38 -28 43
-14 4 9 1 18 -5 22 -7 5 -8 2 -3 -6z"/>
<path d="M1830 290 c-6 -11 -9 -20 -8 -20 2 0 11 9 21 20 9 11 13 20 7 20 -5
0 -14 -9 -20 -20z"/>
<path d="M2108 288 c-10 -10 -14 -18 -9 -18 10 0 36 29 30 34 -2 1 -12 -6 -21
-16z"/>
<path d="M2374 298 c-4 -6 -3 -8 4 -4 5 3 12 1 14 -5 2 -7 9 -10 16 -8 8 3 5
9 -7 16 -15 9 -22 10 -27 1z"/>
<path d="M2650 299 c0 -5 5 -7 10 -4 6 3 10 8 10 11 0 2 -4 4 -10 4 -5 0 -10
-5 -10 -11z"/>
<path d="M2668 288 c-10 -10 -14 -18 -9 -18 10 0 36 29 30 34 -2 1 -12 -6 -21
-16z"/>
<path d="M2797 303 c-10 -9 -9 -23 1 -23 5 0 9 7 9 15 0 17 -1 18 -10 8z"/>
<path d="M2877 299 c7 -7 15 -10 18 -7 3 3 -2 9 -12 12 -14 6 -15 5 -6 -5z"/>
<path d="M2915 300 c-3 -5 -1 -10 4 -10 6 0 11 5 11 10 0 6 -2 10 -4 10 -3 0
-8 -4 -11 -10z"/>
<path d="M686 283 c-8 -20 9 -40 19 -22 6 8 4 10 -5 4 -9 -5 -10 -2 -5 14 8
25 0 29 -9 4z"/>
<path d="M718 293 c7 -3 16 -2 19 1 4 3 -2 6 -13 5 -11 0 -14 -3 -6 -6z"/>
<path d="M1482 280 c-7 -11 -8 -20 -3 -20 9 0 24 30 18 36 -1 2 -8 -6 -15 -16z"/>
<path d="M1955 290 c-3 -5 -2 -18 4 -27 7 -14 9 -12 8 10 -2 30 -3 31 -12 17z"/>
<path d="M2140 291 c0 -6 4 -13 10 -16 6 -3 7 1 4 9 -7 18 -14 21 -14 7z"/>
<path d="M2446 283 c-8 -20 9 -40 19 -22 6 8 4 10 -5 4 -9 -5 -10 -2 -5 14 8
25 0 29 -9 4z"/>
<path d="M2543 290 c2 -8 10 -15 17 -15 7 0 15 7 17 15 4 13 3 13 -6 0 -10
-13 -12 -13 -22 0 -9 13 -10 13 -6 0z"/>
<path d="M2943 290 c2 -8 10 -15 17 -15 7 0 15 7 17 15 4 13 3 13 -6 0 -10
-13 -12 -13 -22 0 -9 13 -10 13 -6 0z"/>
<path d="M3126 283 c-6 -14 -5 -15 5 -6 7 7 10 15 7 18 -3 3 -9 -2 -12 -12z"/>
<path d="M3234 285 c3 -23 12 -26 13 -5 1 11 -2 20 -7 20 -4 0 -7 -7 -6 -15z"/>
<path d="M431 273 c7 -12 15 -20 18 -17 3 2 -3 12 -13 22 -17 16 -18 16 -5 -5z"/>
<path d="M510 286 c0 -2 7 -7 16 -10 8 -3 12 -2 9 4 -6 10 -25 14 -25 6z"/>
<path d="M586 282 c-2 -4 4 -8 14 -8 10 0 16 4 14 8 -3 4 -9 8 -14 8 -5 0 -11
-4 -14 -8z"/>
<path d="M635 280 c-3 -5 -3 -10 2 -10 4 0 1 -5 -7 -11 -10 -7 -11 -9 -2 -7 8
2 13 7 12 12 -1 5 4 13 12 17 9 6 9 9 1 9 -6 0 -15 -4 -18 -10z"/>
<path d="M873 273 c0 -7 4 -13 8 -13 4 0 9 6 12 13 3 8 0 14 -7 14 -7 0 -13
-6 -13 -14z"/>
<path d="M926 282 c-3 -5 1 -9 9 -9 8 0 12 4 9 9 -3 4 -7 8 -9 8 -2 0 -6 -4
-9 -8z"/>
<path d="M1035 280 c3 -5 8 -10 11 -10 2 0 4 5 4 10 0 6 -5 10 -11 10 -5 0 -7
-4 -4 -10z"/>
<path d="M1120 275 c-7 -9 -11 -17 -9 -20 3 -2 10 5 17 15 14 24 10 26 -8 5z"/>
<path d="M1184 278 c-5 -7 -3 -8 6 -3 9 5 11 1 6 -16 -3 -13 -3 -18 0 -11 3 6
10 9 16 6 6 -4 5 2 -1 15 -13 24 -17 25 -27 9z"/>
<path d="M1310 281 c0 -6 4 -13 10 -16 6 -3 7 1 4 9 -7 18 -14 21 -14 7z"/>
<path d="M1388 272 c9 -10 19 -17 21 -16 6 5 -20 34 -30 34 -5 0 -1 -8 9 -18z"/>
<path d="M1640 275 c-19 -22 -8 -25 13 -3 9 10 13 18 8 18 -5 0 -14 -7 -21
-15z"/>
<path d="M1707 283 c-3 -5 6 -9 20 -10 19 -1 22 1 12 8 -17 11 -26 11 -32 2z"/>
<path d="M1790 285 c0 -5 5 -17 10 -25 5 -8 10 -10 10 -5 0 6 -5 17 -10 25 -5
8 -10 11 -10 5z"/>
<path d="M1864 278 c10 -6 22 -6 26 -2 5 5 -3 10 -18 11 -22 1 -24 0 -8 -9z"/>
<path d="M1984 279 c-5 -8 -3 -9 6 -4 7 4 16 2 22 -6 8 -12 9 -12 6 0 -6 20
-24 25 -34 10z"/>
<path d="M2256 278 c3 -5 10 -6 15 -3 13 9 11 12 -6 12 -8 0 -12 -4 -9 -9z"/>
<path d="M2348 272 c9 -10 19 -17 21 -16 6 5 -20 34 -30 34 -5 0 -1 -8 9 -18z"/>
<path d="M2490 280 c0 -5 5 -10 10 -10 6 0 10 5 10 10 0 6 -4 10 -10 10 -5 0
-10 -4 -10 -10z"/>
<path d="M2610 278 c0 -4 4 -8 9 -8 6 0 12 4 15 8 3 5 -1 9 -9 9 -8 0 -15 -4
-15 -9z"/>
<path d="M2830 276 c4 -4 16 -4 26 2 16 9 14 10 -8 9 -15 -1 -23 -6 -18 -11z"/>
<path d="M3010 280 c0 -5 5 -10 10 -10 6 0 10 5 10 10 0 6 -4 10 -10 10 -5 0
-10 -4 -10 -10z"/>
<path d="M3152 284 c3 -3 12 -6 20 -8 7 -1 20 -5 28 -10 12 -7 13 -6 3 4 -7 8
-23 15 -35 17 -12 2 -19 1 -16 -3z"/>
<path d="M3334 275 c1 -8 6 -18 11 -22 4 -4 5 -3 2 4 -4 6 -2 13 5 15 8 3 6 6
-4 10 -10 4 -15 2 -14 -7z"/>
<path d="M3370 280 c0 -5 5 -10 11 -10 5 0 7 5 4 10 -3 6 -8 10 -11 10 -2 0
-4 -4 -4 -10z"/>
<path d="M230 270 c-13 -8 -12 -10 3 -10 9 0 17 5 17 10 0 12 -1 12 -20 0z"/>
<path d="M391 275 c0 -5 4 -17 9 -25 7 -11 10 -11 10 -2 0 7 5 10 12 6 7 -4 8
-3 4 5 -4 6 -11 9 -16 6 -4 -3 -11 1 -13 7 -3 7 -6 9 -6 3z"/>
<path d="M815 271 c-3 -5 0 -13 6 -17 8 -5 9 -3 4 6 -6 9 -1 10 16 5 19 -5 21
-4 9 4 -19 13 -27 14 -35 2z"/>
<path d="M1340 276 c0 -2 7 -7 16 -10 8 -3 12 -2 9 4 -6 10 -25 14 -25 6z"/>
<path d="M2033 265 c0 -8 4 -12 9 -9 5 3 6 10 3 15 -9 13 -12 11 -12 -6z"/>
<path d="M2175 271 c-3 -5 0 -13 6 -17 8 -5 9 -3 4 6 -6 9 -1 10 16 5 19 -5
21 -4 9 4 -19 13 -27 14 -35 2z"/>
<path d="M2300 276 c0 -2 7 -7 16 -10 8 -3 12 -2 9 4 -6 10 -25 14 -25 6z"/>
<path d="M2723 273 c9 -2 14 -9 11 -15 -4 -7 -2 -8 5 -4 15 10 4 26 -17 25
-15 -1 -15 -2 1 -6z"/>
<path d="M3070 269 c-12 -8 -10 -9 9 -4 17 5 22 4 16 -5 -5 -9 -4 -11 4 -6 6
4 9 12 6 17 -8 12 -16 11 -35 -2z"/>
<path d="M3260 276 c0 -2 7 -7 16 -10 8 -3 12 -2 9 4 -6 10 -25 14 -25 6z"/>
<path d="M90 260 c0 -5 5 -10 11 -10 5 0 7 5 4 10 -3 6 -8 10 -11 10 -2 0 -4
-4 -4 -10z"/>
<path d="M170 265 c0 -7 30 -13 34 -7 3 4 -4 9 -15 9 -10 1 -19 0 -19 -2z"/>
<path d="M735 259 c-5 -8 -4 -10 3 -5 7 4 12 3 12 -3 0 -5 -6 -12 -12 -14 -10
-4 -10 -6 -1 -6 17 -1 27 19 15 31 -6 6 -12 6 -17 -3z"/>
<path d="M793 252 c0 -12 5 -22 9 -22 11 0 10 12 -2 30 -7 12 -9 10 -7 -8z"/>
<path d="M1055 259 c-5 -8 -4 -10 3 -5 7 4 12 3 12 -3 0 -5 -6 -12 -12 -14
-10 -4 -10 -6 -1 -6 17 -1 27 19 15 31 -6 6 -12 6 -17 -3z"/>
<path d="M1272 261 c-11 -7 -11 -9 0 -14 9 -3 15 1 15 9 0 8 -1 14 -1 14 -1 0
-7 -4 -14 -9z"/>
<path d="M1535 259 c-5 -8 -4 -10 3 -5 7 4 12 3 12 -3 0 -5 -6 -12 -12 -14
-10 -4 -10 -6 -1 -6 17 -1 27 19 15 31 -6 6 -12 6 -17 -3z"/>
<path d="M1653 258 c-3 -6 -1 -8 5 -4 5 3 12 2 14 -4 2 -5 9 -6 16 -1 10 6 9
10 -7 14 -12 3 -24 0 -28 -5z"/>
<path d="M1752 261 c-11 -7 -11 -9 0 -14 9 -3 15 1 15 9 0 8 -1 14 -1 14 -1 0
-7 -4 -14 -9z"/>
<path d="M1854 262 c3 -5 2 -12 -4 -14 -5 -2 -6 -9 -1 -16 6 -10 10 -9 14 7 3
12 0 24 -5 28 -6 3 -8 1 -4 -5z"/>
<path d="M1924 255 c-4 -8 -10 -12 -15 -9 -5 3 -6 -2 -2 -12 5 -14 7 -14 18 5
6 12 15 18 20 14 4 -4 5 -2 1 5 -9 16 -15 15 -22 -3z"/>
<path d="M2060 266 c0 -2 7 -7 16 -10 8 -3 12 -2 9 4 -6 10 -25 14 -25 6z"/>
<path d="M2134 262 c3 -5 1 -12 -4 -14 -6 -2 -12 -10 -13 -18 -2 -8 -7 -22
-12 -30 -8 -13 -7 -13 8 -1 10 8 15 16 12 19 -3 3 2 13 11 23 12 13 12 19 3
25 -7 4 -10 3 -5 -4z"/>
<path d="M2235 260 c3 -5 8 -10 11 -10 2 0 4 5 4 10 0 6 -5 10 -11 10 -5 0 -7
-4 -4 -10z"/>
<path d="M2579 268 c0 -2 -2 -13 -5 -26 -3 -19 -2 -21 10 -10 8 7 10 15 5 16
-5 2 -7 8 -3 13 3 5 3 9 0 9 -3 0 -6 -1 -7 -2z"/>
<path d="M2748 248 c-10 -10 -14 -18 -9 -18 10 0 36 29 30 34 -2 1 -12 -6 -21
-16z"/>
<path d="M2855 260 c-3 -5 5 -15 19 -21 14 -7 23 -16 19 -22 -4 -6 -1 -7 7 -2
10 6 9 11 -5 22 -11 7 -23 13 -28 13 -4 0 -5 5 -2 10 3 6 4 10 1 10 -3 0 -8
-4 -11 -10z"/>
<path d="M2934 262 c3 -5 0 -13 -6 -15 -9 -4 -10 -6 -1 -6 17 -1 25 16 12 25
-7 4 -9 3 -5 -4z"/>
<path d="M2975 260 c-3 -5 -3 -10 2 -10 4 0 1 -5 -7 -10 -11 -7 -11 -10 -2
-10 7 0 10 -5 6 -12 -4 -7 -3 -8 5 -4 6 4 9 11 6 16 -3 4 1 11 7 13 10 4 10 6
0 6 -7 1 -10 6 -7 11 3 6 4 10 1 10 -3 0 -8 -4 -11 -10z"/>
<path d="M138 237 c-3 -19 -2 -25 4 -19 6 6 8 18 6 28 -3 14 -5 12 -10 -9z"/>
<path d="M275 250 c-8 -13 3 -30 18 -30 7 0 6 4 -3 10 -13 9 -13 11 0 20 9 6
10 10 3 10 -6 0 -15 -4 -18 -10z"/>
<path d="M356 245 c23 -17 34 -19 34 -4 0 5 -4 8 -9 4 -5 -3 -12 -1 -16 5 -3
5 -11 10 -18 10 -6 0 -2 -7 9 -15z"/>
<path d="M452 245 c-8 -10 -9 -15 -2 -15 6 0 8 -6 4 -12 -4 -7 -3 -10 1 -5 8
7 19 48 12 47 -1 -1 -8 -7 -15 -15z"/>
<path d="M520 251 c0 -6 4 -13 10 -16 6 -3 7 1 4 9 -7 18 -14 21 -14 7z"/>
<path d="M594 243 c2 -9 8 -18 15 -19 6 -1 7 0 1 3 -5 2 -8 9 -5 13 3 5 1 11
-4 14 -5 4 -8 -2 -7 -11z"/>
<path d="M915 250 c-3 -5 -3 -10 2 -10 4 0 1 -5 -7 -11 -10 -7 -11 -9 -2 -7 8
2 13 7 12 12 -1 5 4 13 12 17 9 6 9 9 1 9 -6 0 -15 -4 -18 -10z"/>
<path d="M1133 244 c1 -21 27 -23 27 -2 0 5 -4 7 -9 4 -5 -4 -11 0 -14 6 -3 7
-4 3 -4 -8z"/>
<path d="M1235 250 c-3 -5 -3 -10 2 -10 4 0 1 -5 -7 -11 -12 -8 -12 -10 -1 -7
8 2 15 12 17 21 3 19 -2 22 -11 7z"/>
<path d="M1301 255 c0 -5 4 -17 9 -25 7 -11 10 -11 10 -2 0 7 5 10 12 6 7 -4
8 -3 4 5 -4 6 -11 9 -16 6 -4 -3 -11 1 -13 7 -3 7 -6 9 -6 3z"/>
<path d="M1380 251 c0 -7 -4 -9 -10 -6 -6 4 -7 -1 -3 -11 6 -15 7 -15 15 1 6
9 7 19 4 22 -3 4 -6 1 -6 -6z"/>
<path d="M1610 250 c0 -5 9 -14 20 -20 11 -6 20 -9 20 -8 0 2 -9 11 -20 21
-11 9 -20 13 -20 7z"/>
<path d="M1715 250 c-8 -13 3 -30 18 -30 8 0 7 3 -2 9 -7 5 -10 14 -7 20 4 6
5 11 2 11 -3 0 -8 -4 -11 -10z"/>
<path d="M1780 255 c0 -5 5 -17 10 -25 5 -8 10 -10 10 -5 0 6 -5 17 -10 25 -5
8 -10 11 -10 5z"/>
<path d="M2266 241 c5 -17 3 -21 -6 -16 -9 5 -11 4 -6 -3 10 -16 14 -15 27 9
6 13 7 19 1 15 -6 -3 -13 0 -16 6 -3 7 -3 2 0 -11z"/>
<path d="M2340 251 c0 -7 -4 -9 -10 -6 -6 4 -7 -1 -3 -11 6 -15 7 -15 15 1 6
9 7 19 4 22 -3 4 -6 1 -6 -6z"/>
<path d="M2510 258 c0 -2 9 -11 20 -21 11 -9 20 -13 20 -7 0 5 -9 14 -20 20
-11 6 -20 9 -20 8z"/>
<path d="M2638 253 c7 -3 16 -2 19 1 4 3 -2 6 -13 5 -11 0 -14 -3 -6 -6z"/>
<path d="M2670 256 c0 -2 8 -10 18 -17 15 -13 16 -12 3 4 -13 16 -21 21 -21
13z"/>
<path d="M3115 249 c-4 -6 -5 -12 -2 -15 2 -3 7 2 10 11 7 17 1 20 -8 4z"/>
<path d="M3151 251 c-8 -5 -9 -11 -3 -15 5 -3 12 1 16 9 6 17 6 18 -13 6z"/>
<path d="M3221 255 c0 -5 4 -17 9 -25 7 -11 10 -11 10 -2 0 7 5 10 12 6 7 -4
8 -3 4 5 -4 6 -11 9 -16 6 -4 -3 -11 1 -13 7 -3 7 -6 9 -6 3z"/>
<path d="M3390 256 c0 -2 8 -10 18 -17 15 -13 16 -12 3 4 -13 16 -21 21 -21
13z"/>
<path d="M3428 253 c7 -3 16 -2 19 1 4 3 -2 6 -13 5 -11 0 -14 -3 -6 -6z"/>
<path d="M170 232 c9 -19 30 -23 30 -5 0 4 -3 3 -7 0 -3 -4 -12 1 -20 11 -13
15 -13 15 -3 -6z"/>
<path d="M313 235 c0 -8 4 -12 9 -9 4 3 8 9 8 15 0 5 -4 9 -8 9 -5 0 -9 -7 -9
-15z"/>
<path d="M666 235 c10 -8 23 -15 28 -15 6 0 1 7 -10 15 -10 8 -23 15 -28 15
-6 0 -1 -7 10 -15z"/>
<path d="M846 242 c-3 -5 1 -9 9 -9 8 0 15 4 15 9 0 4 -4 8 -9 8 -6 0 -12 -4
-15 -8z"/>
<path d="M970 240 c0 -5 5 -10 10 -10 6 0 10 5 10 10 0 6 -4 10 -10 10 -5 0
-10 -4 -10 -10z"/>
<path d="M1426 237 c3 -10 9 -15 12 -12 3 3 0 11 -7 18 -10 9 -11 8 -5 -6z"/>
<path d="M1450 240 c0 -5 5 -10 10 -10 6 0 10 5 10 10 0 6 -4 10 -10 10 -5 0
-10 -4 -10 -10z"/>
<path d="M2045 240 c-3 -6 1 -7 9 -4 18 7 21 14 7 14 -6 0 -13 -4 -16 -10z"/>
<path d="M2205 240 c-3 -6 1 -7 9 -4 18 7 21 14 7 14 -6 0 -13 -4 -16 -10z"/>
<path d="M2386 236 c6 -15 4 -17 -6 -11 -9 6 -11 4 -5 -4 5 -9 10 -10 18 -2 8
8 7 14 -2 24 -10 10 -11 8 -5 -7z"/>
<path d="M2410 240 c0 -5 5 -10 10 -10 6 0 10 5 10 10 0 6 -4 10 -10 10 -5 0
-10 -4 -10 -10z"/>
<path d="M2470 244 c0 -6 6 -17 14 -23 11 -9 16 -9 22 1 4 7 4 10 -1 6 -4 -4
-14 0 -21 10 -7 9 -14 12 -14 6z"/>
<path d="M2780 245 c0 -1 8 -9 17 -16 11 -10 14 -10 9 -1 -9 15 -1 15 27 1 18
-9 20 -9 10 1 -10 11 -63 24 -63 15z"/>
<path d="M3050 246 c0 -2 7 -7 16 -10 8 -3 12 -2 9 4 -6 10 -25 14 -25 6z"/>
<path d="M3276 235 c-9 -26 -7 -32 5 -12 6 10 9 21 6 23 -2 3 -7 -2 -11 -11z"/>
<path d="M3327 239 c7 -7 15 -10 18 -7 3 3 -2 9 -12 12 -14 6 -15 5 -6 -5z"/>
<path d="M96 227 c3 -10 9 -15 12 -12 3 3 0 11 -7 18 -10 9 -11 8 -5 -6z"/>
<path d="M3015 231 c-3 -5 0 -13 6 -17 7 -4 9 -3 5 4 -3 5 0 13 6 15 9 4 10 6
1 6 -6 1 -14 -3 -18 -8z"/>
<path d="M3430 236 c0 -2 6 -9 14 -15 11 -9 16 -9 22 0 4 8 3 9 -4 5 -7 -4
-12 -2 -12 3 0 6 -4 11 -10 11 -5 0 -10 -2 -10 -4z"/>
<path d="M240 215 c-9 -10 -9 -15 -1 -15 6 0 11 5 11 11 0 5 5 7 12 3 7 -4 8
-3 4 4 -9 15 -11 15 -26 -3z"/>
<path d="M510 221 c0 -6 4 -13 10 -16 6 -3 7 1 4 9 -7 18 -14 21 -14 7z"/>
<path d="M558 222 c-14 -6 -12 -10 10 -26 15 -11 21 -13 15 -6 -16 17 -17 34
-1 24 7 -4 8 -3 4 4 -4 7 -8 12 -9 11 -1 0 -9 -3 -19 -7z"/>
<path d="M638 212 c4 -10 7 -12 10 -4 2 7 9 9 15 5 7 -3 8 -2 4 2 -14 16 -36
14 -29 -3z"/>
<path d="M717 219 c7 -7 15 -10 18 -7 3 3 -2 9 -12 12 -14 6 -15 5 -6 -5z"/>
<path d="M759 228 c-5 -18 -6 -38 -1 -34 7 8 12 36 6 36 -2 0 -4 -1 -5 -2z"/>
<path d="M935 219 c-5 -8 -5 -11 -1 -7 10 8 44 -24 38 -36 -3 -5 0 -6 7 -1 10
6 10 10 0 19 -7 6 -18 17 -25 25 -9 12 -12 12 -19 0z"/>
<path d="M1079 228 c-5 -18 -6 -38 -1 -34 7 8 12 36 6 36 -2 0 -4 -1 -5 -2z"/>
<path d="M1254 218 c-4 -7 -4 -10 1 -6 4 4 14 0 21 -10 7 -9 14 -12 14 -6 0 6
-6 17 -14 23 -11 9 -16 9 -22 -1z"/>
<path d="M1393 200 c0 -23 3 -28 9 -16 5 9 5 23 0 32 -6 12 -9 7 -9 -16z"/>
<path d="M1559 228 c-5 -18 -6 -38 -1 -34 7 8 12 36 6 36 -2 0 -4 -1 -5 -2z"/>
<path d="M1684 216 c-3 -8 -12 -12 -20 -9 -8 3 -14 1 -14 -4 0 -5 11 -9 24 -9
17 0 22 4 18 15 -4 10 -1 12 8 6 9 -5 11 -4 6 3 -10 16 -15 15 -22 -2z"/>
<path d="M1830 223 c0 -6 8 -17 18 -24 16 -13 16 -13 2 6 -8 11 -16 22 -17 24
-2 2 -3 0 -3 -6z"/>
<path d="M1950 220 c0 -5 5 -10 10 -10 6 0 10 5 10 10 0 6 -4 10 -10 10 -5 0
-10 -4 -10 -10z"/>
<path d="M2055 221 c-3 -6 5 -15 17 -21 21 -10 21 -10 6 3 -10 8 -15 17 -11
20 3 4 4 7 0 7 -3 0 -8 -4 -12 -9z"/>
<path d="M2353 200 c0 -23 3 -28 9 -16 5 9 5 23 0 32 -6 12 -9 7 -9 -16z"/>
<path d="M2516 213 c-4 -9 -3 -20 1 -24 4 -4 9 3 9 17 2 28 -1 31 -10 7z"/>
<path d="M2593 200 c0 -23 3 -28 9 -16 5 9 5 23 0 32 -6 12 -9 7 -9 -16z"/>
<path d="M2759 228 c-5 -18 -6 -38 -1 -34 7 8 12 36 6 36 -2 0 -4 -1 -5 -2z"/>
<path d="M2916 214 c-8 -21 -8 -34 2 -34 4 0 8 11 8 25 2 29 -1 32 -10 9z"/>
<path d="M3054 222 c3 -5 0 -13 -6 -15 -9 -4 -10 -6 -1 -6 17 -1 25 16 12 25
-7 4 -9 3 -5 -4z"/>
<path d="M3314 216 c1 -8 5 -18 8 -22 4 -3 5 1 4 10 -1 8 -5 18 -8 22 -4 3 -5
-1 -4 -10z"/>
<path d="M3476 213 c-6 -14 -5 -15 5 -6 7 7 10 15 7 18 -3 3 -9 -2 -12 -12z"/>
<path d="M346 204 c-5 -14 -4 -15 9 -4 17 14 19 20 6 20 -5 0 -12 -7 -15 -16z"/>
<path d="M490 209 c0 -5 -6 -7 -12 -3 -7 4 -9 3 -5 -1 13 -15 36 -14 30 1 -6
17 -13 18 -13 3z"/>
<path d="M780 213 c0 -6 8 -17 18 -24 16 -13 16 -13 2 6 -8 11 -16 22 -17 24
-2 2 -3 0 -3 -6z"/>
<path d="M833 213 c-18 -7 -16 -20 2 -20 8 0 12 4 9 8 -2 4 2 10 8 12 7 3 9 5
3 5 -5 0 -16 -2 -22 -5z"/>
<path d="M1006 195 c9 -14 18 -25 20 -25 2 0 -2 11 -8 25 -6 14 -15 25 -20 25
-5 0 -1 -11 8 -25z"/>
<path d="M1104 209 c1 -7 10 -13 19 -15 9 -1 15 2 11 7 -3 5 -9 7 -14 4 -4 -3
-11 0 -13 5 -3 6 -4 5 -3 -1z"/>
<path d="M1486 195 c9 -14 18 -25 20 -25 2 0 -2 11 -8 25 -6 14 -15 25 -20 25
-5 0 -1 -11 8 -25z"/>
<path d="M1584 210 c1 -7 6 -12 11 -12 6 -1 16 -8 23 -17 11 -14 11 -13 2 7
-6 12 -15 20 -20 17 -4 -3 -11 0 -13 5 -4 7 -5 6 -3 0z"/>
<path d="M2150 210 c-9 -6 -10 -10 -3 -10 6 0 15 5 18 10 8 12 4 12 -15 0z"/>
<path d="M2446 195 c9 -14 18 -25 20 -25 2 0 -2 11 -8 25 -6 14 -15 25 -20 25
-5 0 -1 -11 8 -25z"/>
<path d="M2686 195 c9 -14 18 -25 20 -25 2 0 -2 11 -8 25 -6 14 -15 25 -20 25
-5 0 -1 -11 8 -25z"/>
<path d="M2784 210 c1 -7 6 -12 11 -12 6 -1 16 -8 23 -17 11 -14 11 -13 2 7
-6 12 -15 20 -20 17 -4 -3 -11 0 -13 5 -4 7 -5 6 -3 0z"/>
<path d="M3110 216 c0 -3 9 -10 20 -16 11 -6 20 -8 20 -6 0 3 -9 10 -20 16
-11 6 -20 8 -20 6z"/>
<path d="M3162 204 c10 -10 20 -16 22 -13 3 3 -5 11 -17 18 -21 13 -21 12 -5
-5z"/>
<path d="M3196 207 c3 -10 9 -15 12 -12 3 3 0 11 -7 18 -10 9 -11 8 -5 -6z"/>
<path d="M3291 204 c0 -11 3 -14 6 -6 3 7 2 16 -1 19 -3 4 -6 -2 -5 -13z"/>
<path d="M3395 210 c3 -5 8 -10 11 -10 2 0 4 5 4 10 0 6 -5 10 -11 10 -5 0 -7
-4 -4 -10z"/>
<path d="M401 201 c-10 -7 -7 -9 12 -8 14 1 23 5 20 10 -6 9 -15 9 -32 -2z"/>
<path d="M605 200 c-3 -6 1 -7 9 -4 18 7 21 14 7 14 -6 0 -13 -4 -16 -10z"/>
<path d="M681 197 c-8 -10 -7 -14 4 -14 8 0 12 4 9 8 -2 4 2 10 8 12 8 4 9 6
2 6 -6 1 -17 -5 -23 -12z"/>
<path d="M903 199 c9 -6 15 -14 12 -20 -4 -5 -1 -9 4 -9 6 0 11 4 11 8 0 12
-22 32 -34 32 -6 0 -3 -5 7 -11z"/>
<path d="M1228 192 c9 -10 19 -17 21 -16 6 5 -20 34 -30 34 -5 0 -1 -8 9 -18z"/>
<path d="M1720 195 c-19 -22 -8 -25 13 -3 9 10 13 18 8 18 -5 0 -14 -7 -21
-15z"/>
<path d="M1756 195 c-9 -26 -7 -32 5 -12 6 10 9 21 6 23 -2 3 -7 -2 -11 -11z"/>
<path d="M1974 198 c-4 -7 -4 -10 1 -6 4 4 14 0 22 -10 13 -15 13 -15 3 6 -12
25 -16 27 -26 10z"/>
<path d="M2020 200 c-9 -6 -10 -10 -3 -10 6 0 15 5 18 10 8 12 4 12 -15 0z"/>
<path d="M2190 195 c0 -8 4 -15 10 -15 5 0 7 7 4 15 -4 8 -8 15 -10 15 -2 0
-4 -7 -4 -15z"/>
<path d="M2235 200 c3 -5 8 -10 11 -10 2 0 4 5 4 10 0 6 -5 10 -11 10 -5 0 -7
-4 -4 -10z"/>
<path d="M2285 200 c-3 -5 -1 -10 4 -10 6 0 11 5 11 10 0 6 -2 10 -4 10 -3 0
-8 -4 -11 -10z"/>
<path d="M2319 193 c-13 -16 -12 -17 4 -4 16 13 21 21 13 21 -2 0 -10 -8 -17
-17z"/>
<path d="M2550 196 c7 -7 13 -7 20 0 6 6 3 10 -10 10 -13 0 -16 -4 -10 -10z"/>
<path d="M2946 197 c3 -10 9 -15 12 -12 3 3 0 11 -7 18 -10 9 -11 8 -5 -6z"/>
<path d="M2991 206 c2 -2 15 -9 29 -15 24 -11 24 -11 6 3 -16 13 -49 24 -35
12z"/>
<path d="M3081 194 c0 -11 3 -14 6 -6 3 7 2 16 -1 19 -3 4 -6 -2 -5 -13z"/>
<path d="M1310 189 c-12 -8 -10 -9 9 -4 17 5 22 4 16 -5 -5 -9 -4 -11 4 -6 6
4 9 12 6 17 -8 12 -16 11 -35 -2z"/>
<path d="M1430 189 c-12 -8 -10 -9 9 -4 17 5 22 4 16 -5 -5 -9 -4 -11 4 -6 6
4 9 12 6 17 -8 12 -16 11 -35 -2z"/>
<path d="M1790 189 c-12 -8 -10 -9 9 -4 17 5 22 4 16 -5 -5 -9 -4 -11 4 -6 6
4 9 12 6 17 -8 12 -16 11 -35 -2z"/>
<path d="M1910 190 c-13 -8 -12 -10 3 -10 9 0 17 5 17 10 0 12 -1 12 -20 0z"/>
<path d="M2390 189 c-12 -8 -10 -9 9 -4 17 5 22 4 16 -5 -5 -9 -4 -11 4 -6 6
4 9 12 6 17 -8 12 -16 11 -35 -2z"/>
<path d="M2630 189 c-12 -8 -10 -9 9 -4 17 5 22 4 16 -5 -5 -9 -4 -11 4 -6 6
4 9 12 6 17 -8 12 -16 11 -35 -2z"/>
<path d="M2837 189 c7 -7 15 -10 18 -7 3 3 -2 9 -12 12 -14 6 -15 5 -6 -5z"/>
<path d="M2976 187 c3 -10 9 -15 12 -12 3 3 0 11 -7 18 -10 9 -11 8 -5 -6z"/>
<path d="M1150 179 c0 -5 5 -7 10 -4 6 3 10 8 10 11 0 2 -4 4 -10 4 -5 0 -10
-5 -10 -11z"/>
<path d="M1180 186 c0 -2 7 -6 15 -10 8 -3 15 -1 15 4 0 6 -7 10 -15 10 -8 0
-15 -2 -15 -4z"/>
<path d="M1870 179 c0 -5 5 -7 10 -4 6 3 10 8 10 11 0 2 -4 4 -10 4 -5 0 -10
-5 -10 -11z"/>
<path d="M2050 179 c0 -5 5 -7 10 -4 6 3 10 8 10 11 0 2 -4 4 -10 4 -5 0 -10
-5 -10 -11z"/>
<path d="M2256 182 c-3 -5 1 -9 9 -9 8 0 12 4 9 9 -3 4 -7 8 -9 8 -2 0 -6 -4
-9 -8z"/>
<path d="M2486 182 c-3 -5 1 -9 9 -9 8 0 12 4 9 9 -3 4 -7 8 -9 8 -2 0 -6 -4
-9 -8z"/>
</g>
</svg>
