<svg width="107" height="91" viewBox="0 0 107 91" fill="none" xmlns="http://www.w3.org/2000/svg">
<g clip-path="url(#clip0)">
<path d="M106.493 65.7209C106.774 65.7209 107 66.0194 107 66.3909V97.5289C107 97.9003 106.774 98.1996 106.493 98.1996H102.59C102.31 98.1996 102.084 97.9003 102.084 97.5289V66.3909C102.084 66.0194 102.31 65.7209 102.59 65.7209H106.493Z" fill="black"/>
<g filter="url(#filter0_f)">
<path d="M106.386 66.3187C106.636 66.3187 106.837 66.5853 106.837 66.9164V97.0035C106.837 97.3346 106.636 97.6012 106.386 97.6012C106.308 97.6012 106.245 97.5383 106.245 97.4607V66.4592C106.245 66.3816 106.308 66.3187 106.386 66.3187Z" fill="url(#paint0_linear)"/>
</g>
<path d="M4.40977 38.4406H0.506655C0.226837 38.4406 0 38.7408 0 39.1111V48.7964C0 49.1667 0.226837 49.4669 0.506655 49.4669H4.40977C4.68959 49.4669 4.91643 49.1667 4.91643 48.7964V39.1111C4.91643 38.7408 4.68959 38.4406 4.40977 38.4406Z" fill="black"/>
<g filter="url(#filter1_f)">
<path d="M0.614509 39.0387C0.364279 39.0387 0.162872 39.3052 0.162872 39.6364V48.2709C0.162872 48.6021 0.364279 48.8686 0.614509 48.8686C0.692097 48.8686 0.754994 48.8057 0.754994 48.7282V39.1792C0.754994 39.1016 0.692097 39.0387 0.614509 39.0387Z" fill="url(#paint1_linear)"/>
</g>
<path d="M0.506787 59.0035C0.2261 59.0035 0 59.302 0 59.6735V78.8704C0 79.2419 0.2261 79.5411 0.506787 79.5411H4.40957C4.69026 79.5411 4.91636 79.2419 4.91636 78.8704V59.6735C4.91636 59.302 4.69026 59.0035 4.40957 59.0035H0.506787Z" fill="black"/>
<g filter="url(#filter2_f)">
<path d="M0.61451 59.6014C0.364279 59.6014 0.162872 59.868 0.162872 60.1992V78.3451C0.162872 78.6763 0.364279 78.9428 0.61451 78.9428C0.692097 78.9428 0.754994 78.88 0.754994 78.8024V59.7419C0.754994 59.6643 0.692097 59.6014 0.61451 59.6014Z" fill="url(#paint2_linear)"/>
</g>
<path d="M0.506787 84.8309C0.2261 84.8309 0 85.1294 0 85.5009V104.698C0 105.069 0.2261 105.369 0.506787 105.369H4.40957C4.69026 105.369 4.91636 105.069 4.91636 104.698V85.5009C4.91636 85.1294 4.69026 84.8309 4.40957 84.8309H0.506787Z" fill="black"/>
<g filter="url(#filter3_f)">
<path d="M0.61451 85.4288C0.364279 85.4288 0.162872 85.6954 0.162872 86.0265V104.173C0.162872 104.504 0.364279 104.77 0.61451 104.77C0.692097 104.77 0.754994 104.707 0.754994 104.63V85.5693C0.754994 85.4917 0.692097 85.4288 0.61451 85.4288Z" fill="url(#paint3_linear)"/>
</g>
<path d="M16.27 0.295776C7.57911 0.295776 0.582825 9.55485 0.582825 21.0566V262.841C0.582825 274.343 7.57911 283.603 16.27 283.603H47.3713C47.7963 283.603 48.1866 283.368 48.3865 282.993C48.5865 282.618 48.9768 282.384 49.4017 282.384H51.0171H55.9828H57.5975C58.0226 282.384 58.413 282.618 58.6131 282.993C58.8132 283.368 59.2037 283.603 59.6288 283.603H90.73C99.4209 283.603 106.417 274.343 106.417 262.841V21.0566C106.417 9.55485 99.4209 0.295776 90.73 0.295776H16.27Z" fill="black"/>
<path d="M0.93985 28.8563C0.93985 29.1982 1.21704 29.4754 1.55896 29.4754C1.90089 29.4754 2.17807 29.1982 2.17807 28.8563V28.1577C2.17807 27.8158 1.90089 27.5386 1.55896 27.5386C1.21704 27.5386 0.93985 27.8158 0.93985 28.1577V28.8563Z" fill="#7D7E7F"/>
<path d="M0.93985 253.903C0.93985 254.244 1.21704 254.522 1.55896 254.522C1.90089 254.522 2.17807 254.244 2.17807 253.903V30.0945C2.17807 29.7525 1.90089 29.4753 1.55896 29.4753C1.21704 29.4753 0.93985 29.7525 0.93985 30.0945V253.903Z" fill="#EBEBEB"/>
<path d="M106.06 30.0945C106.06 29.7525 105.783 29.4753 105.441 29.4753C105.099 29.4753 104.822 29.7525 104.822 30.0945V253.903C104.822 254.244 105.099 254.522 105.441 254.522C105.783 254.522 106.06 254.244 106.06 253.903V30.0945Z" fill="#EBEBEB"/>
<path d="M106.06 28.1577C106.06 27.8158 105.783 27.5386 105.441 27.5386C105.099 27.5386 104.822 27.8158 104.822 28.1577V28.8562C104.822 29.1982 105.099 29.4754 105.441 29.4754C105.783 29.4754 106.06 29.1982 106.06 28.8562V28.1577Z" fill="#7D7E7F"/>
<path d="M16.8627 0.891235C8.04158 0.891235 0.93985 10.2899 0.93985 21.964V26.9194C0.93985 27.2613 1.21704 27.5385 1.55896 27.5385C1.90089 27.5385 2.17807 27.2613 2.17807 26.9194V21.3294C2.17807 10.8733 8.53871 2.45619 16.4395 2.45619H90.5605C98.4613 2.45619 104.822 10.8733 104.822 21.3294V26.9194C104.822 27.2613 105.099 27.5385 105.441 27.5385C105.783 27.5385 106.06 27.2613 106.06 26.9194V21.964C106.06 10.2899 98.9584 0.891235 90.1373 0.891235H16.8627Z" fill="#EBEBEB"/>
<path d="M10.3576 6.04314C10.7067 5.99739 10.5419 6.45799 9.75849 7.41833C7.17379 10.5868 5.56893 15.1729 5.56893 20.2776V142.048V263.819C5.56893 268.924 7.17379 273.51 9.75849 276.678C10.5419 277.639 10.7067 278.099 10.3576 278.054C10.1481 278.026 9.75356 277.816 9.19713 277.424C5.41959 274.757 3.22598 269.003 3.22598 262.891V142.048V21.2056C3.22598 15.0942 5.41959 9.34019 9.19713 6.67312C9.75356 6.28026 10.1481 6.07059 10.3576 6.04314Z" fill="url(#paint4_linear)"/>
<path d="M59.1658 10.7961H48.02C47.5729 10.7961 47.2106 11.2757 47.2106 11.8673C47.2106 12.4589 47.5729 12.9385 48.02 12.9385H59.1658C59.6128 12.9385 59.9752 12.4589 59.9752 11.8673C59.9752 11.2757 59.6128 10.7961 59.1658 10.7961Z" fill="#1E1E1E"/>
<path d="M65.0592 13.7288C65.8935 13.7288 66.5698 12.8337 66.5698 11.7296C66.5698 10.6255 65.8935 9.73047 65.0592 9.73047C64.225 9.73047 63.5487 10.6255 63.5487 11.7296C63.5487 12.8337 64.225 13.7288 65.0592 13.7288Z" fill="#2B2B2B"/>
<path d="M65.0592 13.3314C65.7277 13.3314 66.2696 12.6143 66.2696 11.7296C66.2696 10.845 65.7277 10.1278 65.0592 10.1278C64.3908 10.1278 63.8489 10.845 63.8489 11.7296C63.8489 12.6143 64.3908 13.3314 65.0592 13.3314Z" fill="#0A0D13"/>
<path d="M65.0592 12.95C65.5686 12.95 65.9814 12.4036 65.9814 11.7296C65.9814 11.0556 65.5686 10.5092 65.0592 10.5092C64.5499 10.5092 64.1371 11.0556 64.1371 11.7296C64.1371 12.4036 64.5499 12.95 65.0592 12.95Z" fill="#091427"/>
<g filter="url(#filter4_f)">
<path fill-rule="evenodd" clip-rule="evenodd" d="M64.4244 10.913C64.315 10.9282 64.1597 11.1491 64.1481 11.5833C64.1366 12.0174 64.2805 12.2536 64.3611 12.2536C64.4417 12.2536 64.7755 11.6213 64.4244 10.913C64.4244 10.913 64.4244 10.913 64.4244 10.913Z" fill="#235A91" fill-opacity="0.556075"/>
</g>
<g filter="url(#filter5_f)">
<path fill-rule="evenodd" clip-rule="evenodd" d="M65.7088 11.1339C65.5351 10.6942 64.9958 10.9381 65.0107 11.4107C65.0173 11.6214 65.2429 12.1745 65.5149 12.0516C65.7869 11.9287 65.8334 11.4721 65.7206 11.1648C65.7168 11.1544 65.7129 11.1441 65.7088 11.1339Z" fill="#235A91" fill-opacity="0.556075"/>
</g>
<path d="M44.0174 11.9138C44.6701 11.9138 45.2512 12.5016 44.8586 13.0231C44.6369 13.3177 44.3359 13.4839 44.0217 13.4855C43.7075 13.487 43.4057 13.3237 43.1823 13.0313C42.9589 12.7389 42.8321 12.3412 42.8298 11.9254C42.8275 11.5096 42.9498 11.1095 43.1699 10.8128C43.3901 10.516 43.6901 10.3468 44.0043 10.3423C44.3184 10.3377 44.6212 10.498 44.8462 10.7883C45.2463 11.3042 44.6701 11.9011 44.0174 11.9138Z" fill="#0F0F0F"/>
<path d="M36.7126 11.9507C37.6834 11.9507 38.5379 12.8263 37.948 13.5974C37.6135 14.0347 37.1596 14.2815 36.6857 14.2838C36.2117 14.286 35.7564 14.0436 35.4195 13.6095C35.0825 13.1755 34.8913 12.5852 34.8878 11.9679C34.8843 11.3506 35.0688 10.7567 35.4008 10.3163C35.7329 9.87578 36.1854 9.62463 36.6593 9.61782C37.1332 9.611 37.5899 9.84908 37.9293 10.2799C38.5302 11.0426 37.6872 11.9314 36.7165 11.95L36.6791 11.9507H36.7126Z" fill="#101010"/>
<path d="M16.4281 3.83154C13.975 3.83154 11.6845 4.71364 9.72292 6.24829C9.52622 6.40217 9.41608 6.64032 9.41608 6.89007C9.41608 7.61078 10.2835 8.01787 10.8943 7.63526C12.4873 6.63732 14.2703 6.07872 16.1564 6.07872H45.8264H61.3237H90.9937C92.8798 6.07872 94.6628 6.63732 96.2558 7.63526C96.8666 8.01787 97.734 7.61078 97.734 6.89007C97.734 6.64032 97.6239 6.40217 97.4272 6.24829C95.4656 4.71364 93.1751 3.83154 90.722 3.83154H61.3237H45.8264H16.4281Z" fill="url(#paint5_linear)"/>
<path d="M16.5789 8.73291C11.2978 8.73291 7.04626 14.3595 7.04626 21.3486V262.55C7.04626 269.539 11.2978 275.166 16.5789 275.166H90.4212C95.7022 275.166 99.9538 269.539 99.9538 262.55V21.3486C99.9538 14.3595 95.7022 8.73291 90.4212 8.73291H81.0964C80.6741 8.73295 80.2691 8.95499 79.9705 9.35019C79.6719 9.74538 79.5041 10.2814 79.5041 10.8403V11.8106C79.5041 15.6078 77.1945 18.665 74.3253 18.665H32.6747C29.8055 18.665 27.496 15.6078 27.496 11.8106V10.8403C27.4959 10.2814 27.3282 9.74538 27.0295 9.35019C26.7309 8.95499 26.3259 8.73296 25.9036 8.73291H16.5789Z" fill="url(#paint6_linear)"/>
<path d="M72.2271 11.6993C73.5314 11.6993 74.68 12.8751 73.89 13.9129C73.4426 14.5007 72.8354 14.8324 72.2015 14.8355C71.5675 14.8385 70.9585 14.5126 70.5078 13.9291C70.0571 13.3457 69.8014 12.5521 69.7967 11.7224C69.792 10.8926 70.0388 10.0943 70.4829 9.50218C70.927 8.91007 71.5323 8.57246 72.1662 8.5633C72.8001 8.55414 73.411 8.87417 73.865 9.4533C74.6697 10.4799 73.5367 11.6734 72.2325 11.6985L72.1927 11.6993H72.2271Z" fill="#0F0F0F"/>
</g>
<defs>
<filter id="filter0_f" x="105.705" y="65.7791" width="1.67141" height="32.3618" filterUnits="userSpaceOnUse" color-interpolation-filters="sRGB">
<feFlood flood-opacity="0" result="BackgroundImageFix"/>
<feBlend mode="normal" in="SourceGraphic" in2="BackgroundImageFix" result="shape"/>
<feGaussianBlur stdDeviation="0.269824" result="effect1_foregroundBlur"/>
</filter>
<filter id="filter1_f" x="-0.376776" y="38.499" width="1.67142" height="10.9092" filterUnits="userSpaceOnUse" color-interpolation-filters="sRGB">
<feFlood flood-opacity="0" result="BackgroundImageFix"/>
<feBlend mode="normal" in="SourceGraphic" in2="BackgroundImageFix" result="shape"/>
<feGaussianBlur stdDeviation="0.269824" result="effect1_foregroundBlur"/>
</filter>
<filter id="filter2_f" x="-0.376776" y="59.0618" width="1.67142" height="20.4207" filterUnits="userSpaceOnUse" color-interpolation-filters="sRGB">
<feFlood flood-opacity="0" result="BackgroundImageFix"/>
<feBlend mode="normal" in="SourceGraphic" in2="BackgroundImageFix" result="shape"/>
<feGaussianBlur stdDeviation="0.269824" result="effect1_foregroundBlur"/>
</filter>
<filter id="filter3_f" x="-0.376776" y="84.8892" width="1.67142" height="20.4207" filterUnits="userSpaceOnUse" color-interpolation-filters="sRGB">
<feFlood flood-opacity="0" result="BackgroundImageFix"/>
<feBlend mode="normal" in="SourceGraphic" in2="BackgroundImageFix" result="shape"/>
<feGaussianBlur stdDeviation="0.269824" result="effect1_foregroundBlur"/>
</filter>
<filter id="filter4_f" x="63.9133" y="10.6788" width="0.902871" height="1.809" filterUnits="userSpaceOnUse" color-interpolation-filters="sRGB">
<feFlood flood-opacity="0" result="BackgroundImageFix"/>
<feBlend mode="normal" in="SourceGraphic" in2="BackgroundImageFix" result="shape"/>
<feGaussianBlur stdDeviation="0.117104" result="effect1_foregroundBlur"/>
</filter>
<filter id="filter5_f" x="64.7762" y="10.6694" width="1.23587" height="1.63411" filterUnits="userSpaceOnUse" color-interpolation-filters="sRGB">
<feFlood flood-opacity="0" result="BackgroundImageFix"/>
<feBlend mode="normal" in="SourceGraphic" in2="BackgroundImageFix" result="shape"/>
<feGaussianBlur stdDeviation="0.117104" result="effect1_foregroundBlur"/>
</filter>
<linearGradient id="paint0_linear" x1="106.245" y1="66.3187" x2="106.245" y2="97.6012" gradientUnits="userSpaceOnUse">
<stop stop-color="#CBCBCB" stop-opacity="0.27451"/>
<stop offset="0.04" stop-color="#CBCBCB"/>
<stop offset="0.96" stop-color="#CBCBCB"/>
<stop offset="1" stop-color="#CBCBCB" stop-opacity="0.275701"/>
</linearGradient>
<linearGradient id="paint1_linear" x1="0.754994" y1="39.0387" x2="0.754994" y2="48.8686" gradientUnits="userSpaceOnUse">
<stop stop-color="#CBCBCB" stop-opacity="0.27451"/>
<stop offset="0.05" stop-color="#CBCBCB"/>
<stop offset="0.95" stop-color="#CBCBCB"/>
<stop offset="1" stop-color="#CBCBCB" stop-opacity="0.275701"/>
</linearGradient>
<linearGradient id="paint2_linear" x1="0.754994" y1="59.6014" x2="0.754994" y2="78.9428" gradientUnits="userSpaceOnUse">
<stop stop-color="#CBCBCB" stop-opacity="0.27451"/>
<stop offset="0.05" stop-color="#CBCBCB"/>
<stop offset="0.95" stop-color="#CBCBCB"/>
<stop offset="1" stop-color="#CBCBCB" stop-opacity="0.275701"/>
</linearGradient>
<linearGradient id="paint3_linear" x1="0.754994" y1="85.4288" x2="0.754994" y2="104.77" gradientUnits="userSpaceOnUse">
<stop stop-color="#CBCBCB" stop-opacity="0.27451"/>
<stop offset="0.05" stop-color="#CBCBCB"/>
<stop offset="0.95" stop-color="#CBCBCB"/>
<stop offset="1" stop-color="#CBCBCB" stop-opacity="0.275701"/>
</linearGradient>
<linearGradient id="paint4_linear" x1="5.87782" y1="142.048" x2="3.22599" y2="142.048" gradientUnits="userSpaceOnUse">
<stop stop-color="#404040"/>
<stop offset="0.6" stop-color="#838383"/>
<stop offset="1" stop-color="#A7A7A7"/>
</linearGradient>
<linearGradient id="paint5_linear" x1="9.41608" y1="8.73307" x2="97.734" y2="8.73307" gradientUnits="userSpaceOnUse">
<stop stop-color="#4F4F4F" stop-opacity="0.130841"/>
<stop offset="0.07" stop-color="#4F4F4F"/>
<stop offset="0.937" stop-color="#4F4F4F" stop-opacity="0.953271"/>
<stop offset="1" stop-color="#4F4F4F" stop-opacity="0"/>
</linearGradient>
<linearGradient id="paint6_linear" x1="90.4212" y1="8.73291" x2="89.8952" y2="361.921" gradientUnits="userSpaceOnUse">
<stop stop-color="#404040"/>
<stop offset="0.0219315" stop-color="#464646"/>
<stop offset="0.99949" stop-color="#525252" stop-opacity="0.0156863"/>
<stop offset="1" stop-color="#444444" stop-opacity="0"/>
</linearGradient>
<clipPath id="clip0">
<rect width="107" height="284" fill="white"/>
</clipPath>
</defs>
</svg>
